<?xml version="1.0" encoding="utf-8"?>
<!-- Generator: Adobe Illustrator 15.1.0, SVG Export Plug-In . SVG Version: 6.00 Build 0)  -->
<!DOCTYPE svg PUBLIC "-//W3C//DTD SVG 1.1//EN" "http://www.w3.org/Graphics/SVG/1.1/DTD/svg11.dtd">
<svg version="1.1" id="Layer_1" xmlns="http://www.w3.org/2000/svg" xmlns:xlink="http://www.w3.org/1999/xlink" x="0px" y="0px"
	 width="864px" height="864px" viewBox="0 0 864 864" enable-background="new 0 0 864 864" xml:space="preserve">
<path fill="#ffffff" d="M831.133,367.1c-6.873,2.292-9.158,9.472-12.817,15.409c-4.443,7.208-9.278,14.173-14.431,20.892
	c-5.109,6.664-10.529,13.087-16.185,19.293c-4.833,5.304-11.925,15.922-20.043,15.922c-13.425,0-0.354-37.49,1.553-44.301
	c5.417-19.339,12.265-38.315,19.105-57.188c4.646-12.816,16.712-31.71,3.793-43.326c-15.969-14.359-24.72,14.002-30.784,24.212
	c-5.627,9.471-50.986,91.612-62.272,85.534c-8.62-4.643,9.589-41.125,12.389-47.334c4.838-10.731,25.281-37.266,10.515-46.663
	c-26.478-17.652-45.031,37.344-51.778,54.116c-4.635,11.521-7.132,23.324-13.99,33.685c-8.405,12.698-17.015,25.281-25.98,37.59
	c-2.932,4.025-20.998,28.346-25.466,17.163c-2.859-7.153,0.778-18.781,2.171-25.958c2.152-11.093,4.668-22.113,7.388-33.081
	c3.945-15.907,34.296-88.945-8.012-84.54c-27.446,2.857-64.176,78.041-64.176,78.041c-3.339,0,6.391-39.917,7.348-43.734
	c1.791-7.136,6.015-16.458,3.926-23.84c-2.152-7.605-10.09-9.391-16.352-5.634c-13.104,10.92-15.642,32.605-18.964,48.276
	c-1.883,8.883-1.959,17.141-7.852,24.23c-5.576,6.708-11.631,13.014-17.969,19.003c-23.062,21.792-50.589,41.502-80.598,52.405
	c-16.636,6.044-21.326-2.685-23.288-19.053c-0.926-7.726-0.601-14.698,0.56-22.456c0,0,17.261-3.755,23.856-4.918
	c13.828-2.44,27.824-10.455,37.974-19.985c8.676-8.146,21.957-23.803,21.957-36.456c1.168-12.849-4.84-26.386-16.722-32.252
	c-13.085-6.46-29.399-1.092-41.222,5.768c-11.978,6.95-20.55,18.096-29.063,28.911c-10.135,12.876-16.466,34.214-16.466,34.214
	c-16.896,20.55-42.313,52.976-68.031,62.715c-39.772,15.06-10.911-60.203-5.82-74.847c13.296-38.25,29.198-75.694,44.023-113.373
	c5.206-12.15,9.178-32.131-4.708-40.254c-16.323-9.548-31.798,7.337-40.766,18.817c-25.054,32.076-48.471,65.354-72.349,98.308
	c-11.315,15.616-22.479,31.338-34.15,46.693c-1.961,2.58-8.856,13.956-13.063,11.849c-3.465-2.04,5.487-22.217,6.53-25.035
	c14.187-38.355,31.742-75.619,47.603-113.309c9.289-22.075,34.871-63.161,18.277-86.597c-19.133-27.024-48.587,9.151-60.119,23.547
	c-21.202,26.47-40.658,54.432-59.784,82.421c-9.113,13.336-18.095,26.762-26.998,40.239c-4.453,6.741-8.885,13.494-13.306,20.255
	c-4.271,6.534-8.056,15.377-14.187,20.394c13.252-37.101,27.425-73.868,41.166-110.797c6.281-16.881,15.344-35.006,18.005-52.924
	c2.79-18.788-21.541-20.911-32.44-11.175c-6.206,5.544-8.307,14.557-11.075,22.092c-3.397,9.248-6.802,18.493-10.208,27.737
	c-7.405,20.103-14.812,40.206-22.14,60.338c-13.55,37.225-30.309,75.262-38.588,114.107c-2.671,12.535-2.162,35.678,15.925,35.678
	c17.347,0,26.053-24.164,33.352-36.264c20.685-34.289,42.441-67.991,64.698-101.278c10.562-15.795,21.21-31.535,32.285-46.976
	c5.532-7.714,11.17-15.352,16.954-22.88c3.246-4.225,11.609-19.42,17.323-19.42c5.025,0-12.061,41.966-13.67,45.884
	c-8.115,19.756-16.265,39.498-24.396,59.247c-6.129,14.887-12.402,29.726-18.373,44.676c-5.991,15.001-13.792,31.556-15.89,47.671
	c-4.303,33.043,29.87,43.128,49.668,19.65c21.507-25.504,39.809-54.483,59.054-81.716c9.345-13.224,18.69-26.448,28.035-39.672
	c4.672-6.612,9.345-13.224,14.017-19.836c3.964-5.609,7.223-13.201,13.807-16.239c2.579,6.189-2.609,14.651-4.598,20.37
	c-2.726,7.839-5.478,15.67-8.242,23.496c-5.521,15.629-11.091,31.241-16.601,46.875c-5.237,14.858-10.532,29.69-14.728,44.886
	c-3.697,13.389-8.37,28.625-3.195,42.245c9.644,25.383,40.97,26.658,62.124,16.275c22.956-11.267,42.31-32.955,59.166-51.651
	c-1.521,19.389,4.119,41.668,21.659,52.427c15.901,9.754,31.555,5.73,46.673-2.959c29.506-16.958,57.414-42.977,79.131-68.953
	c-1.578,13.723-5.492,37.752,13.303,42.483c17.522,4.41,23.764-30.518,29.075-41.68c8.224-17.283,17.824-33.948,28.355-49.924
	c1.253-1.902,11.078-17.409,13.407-15.069c5.028,5.028-1.112,20.067-2.679,26.236c-5.372,21.147-11.649,42.111-16.069,63.49
	c-3.679,17.789-4.381,38.61,14.954,48.057c16.169,7.9,29.767-6.566,38.956-18.179c12.121-15.316,22.433-32.153,32.591-48.804
	c4.093,10.158,12.6,17.228,23.086,20.024c11.079,2.955,18.098-2.439,25.319-10.265c5.815-6.301,39.731-66.29,43.428-65.062
	c0.46,0.153-16.538,62.273-17.736,68.078c-2.243,10.859-3.527,23.664,5.393,32.127c8.51,8.075,21.061,7.515,30.487,1.514
	c14.274-11.336,25.751-26.844,36.917-41.097c5.778-7.376,11.617-14.694,16.512-22.692C827.886,390.901,839.94,367.1,831.133,367.1
	C829.863,367.523,832.402,367.1,831.133,367.1z M424.526,347.99c3.438-2.65,25.722-9.079,22.574,6.666
	c-2.199,11.004-7.111,19.146-17.917,25.628c-11.113,6.668-32.917,13.023-30.104,7.398
	C407.543,370.332,413.654,356.371,424.526,347.99z"/>
<g>
	<path fill="#ffffff" d="M422.354,204.738c-18.652-16.618-47.444-14.181-62.407,5.756c-4.019,5.354-8.057,13.869-8.24,20.746
		c-0.585,1.965-0.385,4.282-0.482,6.261c-0.166,3.384-0.174,6.774-0.11,10.161c0.122,6.346,0.83,12.689,2.211,18.883
		c2.608,11.697,9.116,22.925,18.886,30.046c23.729,17.296,50.373-0.083,62.054-22.838
		C445.604,251.668,441.016,221.363,422.354,204.738z M365.377,258.903c-2.526-16.481-2.609-38.049,12.692-48.54
		c8.778-6.018,19.561-5.591,28.859-1.053c8.854,4.321,14.66,12.822,17.725,21.941c6.743,20.068-0.587,43.972-18.306,55.785
		c-9.65,6.434-20.091,5.022-28.473-2.505C370.544,277.948,367.167,268.324,365.377,258.903z"/>
	<path fill="#ffffff" d="M508.064,230.104c-16.956-12.201-37.837-1.368-49.19,13.694c-0.566-5.417-1.128-10.834-1.702-16.25
		c-0.565-5.337-8.285-9.083-11.575-3.602c-1.791,2.984-1.056,5.978-0.702,9.303c0.404,3.811,5.784,52.951,6.57,59.023
		c0.52,4.021,0.744,10.497,6.222,10.847c4.748,0.304,7.712-3.361,7.138-7.951c-0.826-6.6-1.677-13.196-2.533-19.792
		c-1.934-14.878,6.744-28.657,19.754-35.414c5.777-3,13.471-3.541,18.756,0.7c4.376,3.512,6.271,9.433,7.453,14.698
		c2.861,12.747,0.57,26.683-1.995,39.255c-0.927,4.538-1.839,10.206,4.045,11.824c6.872,1.891,8.104-5.508,9.083-10.324
		C523.469,276.055,527.547,244.123,508.064,230.104z"/>
	<path fill="#ffffff" d="M577.578,222.28c-0.063-5.157,0.169-10.314,0.037-15.472c-0.26-10.144-8.818-8.42-11.854-4.159
		c-2.009,2.82-1.568,6.126-1.606,9.459c-0.047,4.185-0.012,8.369,0.05,12.553c-6.077,0.68-15.047,1.353-14.859,8.592
		c0.196,7.58,9.369,5.842,15.414,4.427c0.317,12.032,0.875,24.054,1.61,36.068c0.463,7.566,1.01,15.128,1.596,22.686
		c0.394,5.088,1.111,9.652,7.067,10.11c4.954,0.381,6.337-4.905,6.045-8.601c-0.605-7.669-1.146-15.344-1.634-23.021
		c-0.833-13.112-1.435-26.24-1.757-39.375c6.828-0.794,17.098-1.057,17.605-8.976C595.805,218.571,584.284,220.746,577.578,222.28z"
		/>
	<path fill="#ffffff" d="M729.658,259.479c-2.517-0.819-5.531,0.844-6.796,3.002c-0.808,1.38-0.878,3.108-1.2,4.634
		c-0.501,2.376-1.541,4.614-2.6,6.78c-4.138,8.465-12.39,18.653-22.721,13.523c-6.55-3.251-10.66-10.348-13.468-17.042
		c9.467-3.242,18.91-6.557,28.357-9.857c4.62-1.614,9.241-3.23,13.861-4.846c2.481-0.869,4.548-3.198,4.548-5.942
		c0-3.326-2.369-6.938-3.816-9.775c-1.916-3.757-4.357-7.211-7.11-10.397c-10.138-11.731-26.605-12.749-39.384-4.73
		c-12.462,7.82-14.48,23.862-12.249,37.313c-2.329,0.65-5.167,1.411-7.667,2.514c-2.586-6.649-7.282-12.123-14.822-15.017
		c-8.638-3.314-18.263-1-26.123,3.97c15.591-13.155,31.668-31.167,28.391-51.906c-1.888-11.944-12.925-18.381-24.275-15.83
		c-10.561,2.373-17.448,12.761-21.151,22.149c-4.902,12.427-4.667,26.565-4.098,39.671c0.03,0.702,0.08,1.403,0.118,2.105
		c-1.827,0.909-3.585,1.946-5.19,3.256c-3.682,3.004-7.237,9.583-2.603,13.517c2.49,2.114,6.192,0.919,9.36-0.731
		c1.05,7.289,2.563,14.508,4.668,21.558c1.12,3.75,2.514,11.424,6.077,13.676c3.342,2.112,9.256,1.754,10.322-2.994
		c0.647-2.88-0.125-4.583-1.203-7.299c-1.273-3.211-2.208-6.556-3.112-9.885c-2.396-8.826,7.136-15.918,14.208-18.598
		c7.784-2.949,15.302-0.097,17.861,7.861c1.133,3.521,1.251,7.302,1.243,10.967c-0.009,4.663-1.544,9.348-1.484,13.929
		c0.071,5.532,4.866,8.39,9.804,6.07c2.741-1.288,3.003-5.261,3.407-7.741c0.687-4.212,1.072-8.465,1.157-12.731
		c0.021-1.029,0.001-2.053-0.039-3.073c2.949-0.532,6.115-1.832,8.611-2.844c5.188,12.415,14.057,24.817,28.052,27.3
		c15.975,2.834,29.145-13.507,34.154-26.715C734.916,269.601,737.094,261.899,729.658,259.479z M611.644,218.524
		c1.087-4.891,2.942-9.501,5.727-13.667c3.064-4.584,11.023-10.37,15.573-4.347c5.396,7.144-1.726,19.113-5.804,25.205
		c-4.648,6.943-10.783,12.894-17.186,18.324c-0.026,0.015-0.052,0.03-0.078,0.045C609.564,235.514,609.772,226.942,611.644,218.524z
		 M679.362,258.015c-0.922-7.146-0.421-14.828,4.578-20.388c5.545-6.167,15.416-6.741,22.066-2.407
		c3.588,2.978,6.167,6.656,8.321,10.688C702.659,249.904,690.998,253.923,679.362,258.015z"/>
</g>
</svg>
